<svg width="36" height="33" viewBox="0 0 36 33" fill="none" xmlns="http://www.w3.org/2000/svg">
<path d="M33 7.85106V21.0236C33 24.8186 29.64 27.8986 25.5 27.8986H10.5C9.80998 27.8986 9.14998 27.8161 8.50498 27.6511C7.57498 27.4173 7.27498 26.3311 7.96498 25.6986L23.91 11.0823C24.24 10.7798 24.735 10.7111 25.2 10.7936C25.68 10.8761 26.205 10.7523 26.58 10.4223L30.435 6.87481C31.845 5.58231 33 6.00856 33 7.85106Z" fill="#292D32"/>
<path opacity="0.4" d="M21.96 10.1198L6.255 24.5161C5.535 25.1761 4.335 25.0111 3.855 24.1861C3.3 23.2511 3 22.1648 3 21.0236V7.85109C3 6.00859 4.155 5.58234 5.565 6.87484L9.435 10.4361C10.02 10.9586 10.98 10.9586 11.565 10.4361L16.935 5.49984C17.52 4.96359 18.48 4.96359 19.065 5.49984L21.975 8.16734C22.545 8.70359 22.545 9.58359 21.96 10.1198Z" fill="#292D32"/>
</svg>
