<svg width="64" height="64" viewBox="0 0 64 64" fill="none" xmlns="http://www.w3.org/2000/svg">
<path d="M61.4238 40.0306C59.5659 46.838 55.405 52.7905 49.6503 56.874C43.8956 60.9575 36.903 62.9193 29.864 62.4251C22.825 61.9309 16.1751 59.0114 11.0473 54.1638C5.91962 49.3163 2.63134 42.8408 1.74278 35.8407C0.854224 28.8405 2.42037 21.7488 6.17437 15.7739C9.92836 9.79899 15.6379 5.31059 22.3302 3.07344C29.0226 0.836291 36.2835 0.988822 42.876 3.50504C49.4685 6.02126 54.9845 10.7455 58.4843 16.8728" stroke="white" stroke-width="3" stroke-linecap="round"/>
<path d="M58.4369 18.2761C59.2594 18.3755 60.0067 17.7895 60.1062 16.9671L61.7275 3.56476C61.827 2.74233 61.2409 1.99496 60.4185 1.89547C59.5961 1.79598 58.8487 2.38204 58.7492 3.20447L57.3081 15.1176L45.3949 13.6765C44.5725 13.577 43.8251 14.163 43.7256 14.9855C43.6261 15.8079 44.2122 16.5553 45.0346 16.6548L58.4369 18.2761ZM56.8196 16.9256L57.4367 17.7125L59.7974 15.8613L59.1804 15.0744L56.8196 16.9256Z" fill="white"/>
</svg>
