<svg width="36" height="33" viewBox="0 0 36 33" fill="none" xmlns="http://www.w3.org/2000/svg">
<path d="M33 7.85131V21.0238C33 24.8188 29.64 27.8988 25.5 27.8988H10.5C9.80998 27.8988 9.14998 27.8163 8.50498 27.6513C7.57498 27.4176 7.27498 26.3313 7.96498 25.6988L23.91 11.0826C24.24 10.7801 24.735 10.7113 25.2 10.7938C25.68 10.8763 26.205 10.7526 26.58 10.4226L30.435 6.87506C31.845 5.58256 33 6.00881 33 7.85131Z" fill="#F5F5F7"/>
<path opacity="0.4" d="M21.96 10.1201L6.255 24.5163C5.535 25.1763 4.335 25.0113 3.855 24.1863C3.3 23.2513 3 22.1651 3 21.0238V7.85134C3 6.00884 4.155 5.58259 5.565 6.87509L9.435 10.4363C10.02 10.9588 10.98 10.9588 11.565 10.4363L16.935 5.50009C17.52 4.96384 18.48 4.96384 19.065 5.50009L21.975 8.16759C22.545 8.70384 22.545 9.58384 21.96 10.1201Z" fill="#F5F5F7"/>
</svg>
