<svg width="32" height="34" viewBox="0 0 32 34" fill="none" xmlns="http://www.w3.org/2000/svg">
<path d="M26 5.2632V28.4211C26 28.7003 25.8947 28.968 25.7071 29.1654C25.5196 29.3628 25.2652 29.4737 25 29.4737C24.7348 29.4737 24.4805 29.3628 24.2929 29.1654C24.1054 28.968 24 28.7003 24 28.4211V18.7237L9.03753 28.3421C8.72398 28.5397 8.36547 28.6443 8.00003 28.6448C7.65861 28.6496 7.32211 28.5588 7.02503 28.3816C6.71281 28.1997 6.45288 27.9327 6.27252 27.6085C6.09216 27.2844 5.99804 26.9151 6.00003 26.5395V7.14478C5.99956 6.7711 6.09359 6.40403 6.27245 6.08125C6.45131 5.75847 6.70857 5.49162 7.01781 5.30811C7.32704 5.12459 7.6771 5.03102 8.03205 5.037C8.387 5.04298 8.73404 5.1483 9.03753 5.34215L24 14.9606V5.2632C24 4.98403 24.1054 4.71629 24.2929 4.51888C24.4805 4.32147 24.7348 4.21057 25 4.21057C25.2652 4.21057 25.5196 4.32147 25.7071 4.51888C25.8947 4.71629 26 4.98403 26 5.2632Z" fill="white"/>
</svg>
