<svg width="25" height="24" viewBox="0 0 25 24" fill="none" xmlns="http://www.w3.org/2000/svg">
<path d="M5.91436 2.00015L2.50015 5.41436L1.08594 4.00015L4.50015 0.585938L5.91436 2.00015Z" fill="#141522"/>
<path d="M20.5002 0.585938L23.9144 4.00015L22.5002 5.41436L19.0859 2.00015L20.5002 0.585938Z" fill="#141522"/>
<path d="M16.9144 10.0002L11.5002 15.4144L8.08594 12.0002L9.50015 10.5859L11.5002 12.5859L15.5002 8.58594L16.9144 10.0002Z" fill="#141522"/>
<path fill-rule="evenodd" clip-rule="evenodd" d="M2.50015 12.0002C2.50015 6.4773 6.9773 2.00015 12.5002 2.00015C18.023 2.00015 22.5002 6.4773 22.5002 12.0002C22.5002 17.523 18.023 22.0002 12.5002 22.0002C6.9773 22.0002 2.50015 17.523 2.50015 12.0002ZM12.5002 4.00015C8.08187 4.00015 4.50015 7.58187 4.50015 12.0002C4.50015 16.4184 8.08187 20.0002 12.5002 20.0002C16.9184 20.0002 20.5002 16.4184 20.5002 12.0002C20.5002 7.58187 16.9184 4.00015 12.5002 4.00015Z" fill="#141522"/>
</svg>
