<svg width="24" height="22" viewBox="0 0 24 22" fill="none" xmlns="http://www.w3.org/2000/svg">
<path d="M5.41412 2L1.99991 5.41421L0.585693 4L3.99991 0.585785L5.41412 2Z" fill="#8E92BC"/>
<path d="M19.9999 0.585785L23.4141 4L21.9999 5.41421L18.5857 2L19.9999 0.585785Z" fill="#8E92BC"/>
<path d="M16.4141 10L10.9999 15.4142L7.58569 12L8.99991 10.5858L10.9999 12.5858L14.9999 8.58578L16.4141 10Z" fill="#8E92BC"/>
<path fill-rule="evenodd" clip-rule="evenodd" d="M1.99991 12C1.99991 6.47715 6.47706 2 11.9999 2C17.5228 2 21.9999 6.47715 21.9999 12C21.9999 17.5228 17.5228 22 11.9999 22C6.47706 22 1.99991 17.5228 1.99991 12ZM11.9999 4C7.58163 4 3.99991 7.58172 3.99991 12C3.99991 16.4183 7.58163 20 11.9999 20C16.4182 20 19.9999 16.4183 19.9999 12C19.9999 7.58172 16.4182 4 11.9999 4Z" fill="#8E92BC"/>
</svg>
